<?xml version="1.0" encoding="UTF-8"?>
<svg width="512pt" height="512pt" version="1.1" viewBox="0 0 512 512" xmlns="http://www.w3.org/2000/svg">
 <path d="m486.75 291.77c-3.5469 4.9414-7.7891 9.7383-12.734 14.363-24.379 22.824-65.254 41.43-117.23 52.125-3.6133 0.74609-7.2695 1.4609-10.988 2.125-2.8516 0.51172-5.7344 0.99609-8.6406 1.4531-0.23438 0.035157-0.46484 0.078125-0.69531 0.11328-0.09375 0.015626-0.19141 0.035157-0.28516 0.050782-16.398 68.395-47.281 117.75-80.172 117.75h-0.003906c-107.02 0-196.68-75.535-218.59-176.09 13.262 12.699 31.879 24.25 55.496 34.09 45.656 19.023 105.52 29.934 164.25 29.934 28.621 0 52.785-1.6562 78.824-5.6641l2.9219-12.176 1.9492-8.1094c3.2109-0.50391 6.3984-1.0703 9.5703-1.6641 3.4805-0.65625 6.9258-1.3711 10.344-2.1289 49.754-11.07 93.184-33.121 117.54-56.898 4.1758-4.0781 7.8164-8.2109 10.805-12.34 5.7891-8.0117 9.1914-16.027 9.8047-23.719-5.7812-129-112.51-232.18-242.91-232.18h-0.003906c-134.1 0-243.2 109.1-243.2 243.2s109.1 243.2 243.2 243.2h0.003906c134.1 0 243.2-109.1 243.2-243.2 0 12.422-4.3555 24.461-12.453 35.766zm-149.5-152.02c1.6992-0.20312 3.4141-0.25 5.1289-0.30859 0.69531-0.023437 1.3906-0.125 2.0781-0.125 3.7266 0 7.375 0.38672 10.945 1.0469 28.016 5.168 50.531 29.746 54.32 61.238 4.0156 33.293-14.289 63.777-42.285 74.051-3.1562 1.1562-6.4492 2.0039-9.8359 2.6211-1.1953 0.21875-2.3711 0.48828-3.5859 0.63672-2.0547 0.24609-4.1289 0.33594-6.1914 0.37109-0.33984 0.003906-0.67969 0.058594-1.0156 0.058594-2.1289 0-4.2383-0.12109-6.3281-0.33984 3.6445-7.9961 6.2734-19.621 7.8516-31.586 0.51562-3.9453 0.91406-7.9219 1.2031-11.816 2.8516-0.43359 5.5508-1.3594 8.0195-2.7461 3.0469-1.7109 5.7617-4.0547 7.9297-7.0391 0.56641-0.77344 0.97656-1.6328 1.4492-2.457 2.9141-5.0742 4.2148-10.98 3.4883-17.012-0.67188-5.5312-2.9102-10.492-6.1797-14.441-3.1016-3.7383-7.1211-6.5469-11.656-8.0156-2.7305-0.88672-5.6562-1.1875-8.6562-1.0117-0.26172-0.92969-0.52344-1.8555-0.79688-2.7812-4.4531-15.227-10.766-30.223-18.164-37.539 3.375-1.1562 6.8867-1.9492 10.461-2.4883 0.61328-0.089844 1.2109-0.24219 1.8203-0.31641zm22.992 82.246c-0.89453 1.2344-1.9414 2.2773-3.0508 3.2266-2.1211 1.8086-4.5938 3.0352-7.2734 3.6719-0.625 0.14844-1.2305 0.35156-1.875 0.42969-0.089843 0.011719-0.17969-0.007813-0.26953 0.003906-10.148 1.0508-19.184-6.9375-20.488-17.785-1.3281-11.023 5.8203-20.984 15.941-22.203 0.39062-0.046875 0.77344-0.050782 1.1641-0.070313 0.29688-0.015625 0.59375-0.054687 0.89062-0.054687 0.10938 0 0.21094 0.03125 0.32031 0.03125 2.9141 0.054687 5.6602 0.88281 8.1289 2.25 5.4141 2.9961 9.4258 8.6992 10.254 15.625 0.64844 5.3789-0.67969 10.668-3.7422 14.875zm-327.98 34.004c0-123.37 100.37-223.74 223.75-223.74h0.003906c31.328 0.003907 58.539 35.969 75.172 92.113-19.828 3.4883-37.387 14.48-49.727 31.445-13.066 17.965-18.75 40.402-16.012 63.176 5.2539 43.621 40.191 76.516 81.285 76.559-1.3398 15.926-3.4453 31.426-6.2305 46.238-25.414 3.9492-55.414 6.4414-83.328 6.4414-89.266 0-183.7-31.57-223.57-68.004-0.85938-7.9609-1.3359-16.035-1.3359-24.227z"/>
</svg>
