<?xml version="1.0" encoding="UTF-8"?>
<svg width="100pt" height="100pt" version="1.1" viewBox="0 0 100 100" xmlns="http://www.w3.org/2000/svg">
 <g>
  <path d="m95.199 50.398-6.4922-35.023c-0.042969-0.23828-0.19531-0.44922-0.41797-0.58203l-15.914-9.6484c-0.28125-0.16797-0.64062-0.19531-0.94531-0.070312-0.30859 0.125-0.51953 0.38281-0.56641 0.68359l-5.7031 38.488-2.7539-0.16797c-2.8047-2.6328-7.2344-4.3398-12.234-4.3398-2.3789 0-4.6094 0.40234-6.6172 1.0898l-4.7539-25.965c-0.066406-0.30859-0.3125-0.5625-0.64453-0.66406l-22.93-7.0195c-0.26562-0.082032-0.55469-0.054688-0.79687 0.066406-0.24219 0.12109-0.41406 0.33594-0.47266 0.57812l-8.9492 41.656c-0.03125 0.11328-0.03125 0.23047-0.007812 0.34375l7.9766 42.98c0.050782 0.23828 0.20703 0.44922 0.4375 0.58203 0.15625 0.089843 0.33984 0.13672 0.52344 0.13672 0.082031 0 0.16797-0.007813 0.25-0.027344l23.902-5.7109c0.36719-0.089844 0.64453-0.35938 0.71094-0.69141l3.9766-23.949h0.011718v0.007813c2.3164-0.046875 4.8047-0.5625 4.8047-1.5859 0-0.078125-0.027344-0.15234-0.058594-0.22266 0.023438 0.023438 0.058594 0.050781 0.078125 0.074219 0.66406 0.082031 1.3477 0.13281 2.0391 0.14844 0.003906 0.73828 0.65625 1.3711 1.5938 1.5391 0.13281 0.023437 0.26953 0.039062 0.41406 0.042969l0.0625-0.003907v0.007813c2.3125-0.046875 4.8047-0.5625 4.8047-1.5859 0-0.29688-0.21484-0.55859-0.625-0.78906 2.082-0.60156 3.9492-1.5078 5.4648-2.6562l4.2031-0.14062 5.2891 36.047c0.039063 0.27344 0.22656 0.51953 0.49609 0.65234 0.14453 0.070312 0.30859 0.10937 0.47266 0.10937 0.14062 0 0.27734-0.027343 0.40625-0.082031l15.918-6.5859c0.29688-0.12109 0.50391-0.37109 0.55469-0.66016l6.4922-36.781c0.019531-0.09375 0.015625-0.1875 0-0.28125zm-53.48-8.8359c-1.7305 0.81641-3.2344 1.8633-4.3789 3.0977l-5.5 0.67578c-0.32812-0.43359-0.69141-0.82422-1.0938-1.1602l6.6289-26.68zm-5.7422-26.18-6.9453 27.762c-0.63672-0.25-1.3125-0.38672-2.0195-0.38672-0.70312 0-1.3828 0.13672-2.0156 0.38672l-8.6797-33.777zm-11.102 39.738 4.9805 0.74219-0.066407 0.13281-0.64062 0.003906h-4.918l-0.25391-0.53125-2.1367-4.4648-0.16406-0.34375 0.16406-0.34766 2.1367-4.4648 0.25391-0.53125h5.5586l0.125 0.25781-5.0391 0.62109-2.1367 4.4648zm-17.922-5.4453 8.0547-37.871 8.2695 32.371c-1.5117 1.2695-2.5586 3.2852-2.7695 5.6055h-13.531zm7.1992 39.184-6.8164-37.328h13.172c0.21094 2.2891 1.2305 4.2812 2.7109 5.5508zm1.207 2.5352 9.5508-33.262c0.66016 0.26953 1.3672 0.42188 2.1055 0.42188 0.72266 0 1.418-0.14453 2.0664-0.40625l7.5508 28.164zm25.617-29.066-0.023437-0.007813-3.3281 20.695-6.8438-25.902c0.33203-0.28516 0.63672-0.61328 0.92188-0.96875l6.0156 0.89844c1.0352 1.0195 2.3086 1.9062 3.7656 2.6172l-0.15625 0.78516c-0.37109 0.28516-0.60156 0.67578-0.61328 1.1172 0 0.27344 0.097656 0.53125 0.26172 0.76562zm2.8477 0.046875c-0.26172 0.17578-0.60938 0.28516-1.0117 0.30078-0.011719 0-0.015625 0.003907-0.027344 0.003907l-0.054687 0.003906c-0.10938-0.003906-0.21875-0.015625-0.32031-0.03125-0.69531-0.125-1.1797-0.57422-1.1758-1.1055 0.007813-0.34375 0.24219-0.64844 0.59766-0.85156l0.57812-0.21875 0.44922-0.019531c0.32422 0.027344 0.67969 0.11719 0.90625 0.25391 0.27734 0.16797 0.48047 0.40625 0.53516 0.67969 0.011719 0.058594 0.023438 0.11328 0.023438 0.17188 0.003906 0.31641-0.1875 0.60938-0.5 0.8125zm8.9375 0c-0.26562 0.17578-0.61328 0.28516-1.0117 0.30078-0.011719 0-0.015625 0.003907-0.023438 0.003907l-0.054687 0.003906c-0.10938-0.003906-0.21875-0.015625-0.32031-0.03125-0.69141-0.125-1.1797-0.57422-1.1758-1.1055 0.011719-0.50781 0.49609-0.94922 1.1758-1.0703 0.10547-0.019531 0.21094-0.027343 0.32422-0.03125 0.35156 0.011719 0.77734 0.11328 1.0312 0.26563 0.27734 0.16797 0.47656 0.40625 0.53516 0.67969 0.011718 0.058594 0.023437 0.11328 0.023437 0.17188 0 0.31641-0.19141 0.60938-0.50391 0.8125zm4.7305-11.719c0 0.17578-0.007813 0.34766-0.015626 0.51953-0.125 2.1641-1.0039 4.1406-2.3984 5.6914-0.125 0.14062-0.25391 0.26953-0.38281 0.40234-0.13281 0.13281-0.26953 0.26172-0.40625 0.38281-1.6875 1.5039-3.9141 2.4688-6.375 2.6055-0.19531 0.011719-0.39062 0.019532-0.58984 0.019532h-0.003907c-0.19531 0-0.39062-0.003906-0.58203-0.019532-2.4609-0.12891-4.6875-1.0938-6.3789-2.5977-0.14062-0.12109-0.27344-0.25-0.40625-0.37891s-0.25781-0.26562-0.38281-0.40234c-1.3945-1.5508-2.2812-3.5273-2.4062-5.6875-0.011718-0.17578-0.015624-0.35156-0.015624-0.52734v-0.003906c0-0.17578 0.003906-0.34766 0.015624-0.51953 0.12109-2.1641 1.0039-4.1406 2.3984-5.6914 0.12109-0.13672 0.25-0.27344 0.38281-0.40234 0.13281-0.13281 0.26563-0.25781 0.40625-0.38281 1.6875-1.5039 3.9141-2.4688 6.375-2.6055 0.19141-0.011719 0.39063-0.015625 0.58594-0.015625h0.007812c0.19531 0 0.38672 0.007812 0.58203 0.015625 2.4609 0.13281 4.6875 1.0977 6.3789 2.5977 0.13672 0.125 0.27344 0.25 0.40625 0.38281 0.12891 0.13281 0.25781 0.26563 0.38281 0.40234 1.3984 1.5508 2.2812 3.5273 2.4062 5.6914 0.011719 0.17578 0.019532 0.35156 0.019532 0.52734-0.003906-0.007812-0.003906-0.003906-0.003906-0.003906zm29.32-34.645-5.0234 27.715c-0.51172-0.16797-1.0391-0.26953-1.5977-0.26953-0.53125 0-1.043 0.09375-1.5352 0.25l-5.5625-36.008zm-20.473 33.777-0.019532-0.125 0.78516-5.3008 4.7422-31.984 4.9961 32.324c-0.089844 0.074219-0.17188 0.16406-0.26172 0.24219-1.2422 1.1484-2.1055 2.8633-2.3086 4.832h-7.9336zm5.5312 37.707-4.3398-29.586-0.9375-6.3789h7.6797c0.21094 2.1055 1.1758 3.9297 2.5586 5.0703l-0.16016 1.0078zm1.1797 4.9375 5.5977-34.832c0.49609 0.16016 1.0156 0.25391 1.5508 0.25391 0.54297 0 1.0664-0.097657 1.5664-0.25781l4.9062 29.203zm14.715-10.852-4.1992-24.988c1.3789-1.1406 2.3359-2.9609 2.5469-5.0586h6.9609zm-1.6523-31.801c-0.21094-2.0898-1.1602-3.9023-2.5273-5.043l4.2422-23.418 5.2773 28.461z"/>
  <path d="m52.691 61.168c-0.18359-0.26953-0.53906-0.46094-0.97656-0.46094-0.14844 0-0.28906 0.023438-0.42188 0.0625-0.41406 0.125-0.70703 0.42578-0.71094 0.77734v0.007813c0 0.35547 0.29297 0.66016 0.71094 0.78516 0.12891 0.039062 0.26953 0.066406 0.42188 0.066406 0.4375 0 0.80859-0.19531 0.99609-0.46875 0.078124-0.11719 0.13672-0.24219 0.13672-0.38281 0-0.050782-0.027344-0.09375-0.035156-0.14063-0.023438-0.085937-0.066406-0.16797-0.12109-0.24609z"/>
  <path d="m43.758 61.168c-0.18359-0.26953-0.54297-0.46094-0.97656-0.46094-0.14844 0-0.28906 0.023438-0.42188 0.0625-0.41406 0.125-0.70703 0.42578-0.71094 0.77734v0.007813c0 0.35547 0.29297 0.66016 0.71094 0.78516 0.12891 0.039062 0.26953 0.066406 0.42188 0.066406 0.4375 0 0.80859-0.19531 0.99609-0.46875 0.078125-0.11719 0.13281-0.24219 0.13281-0.38281 0-0.050782-0.023437-0.09375-0.035156-0.14063-0.019531-0.085937-0.0625-0.16797-0.11719-0.24609z"/>
  <path d="m51.973 50.652-1.3672-2.9531-3.293-1.2227-3.2852 1.2305-1.3594 2.957 1.3672 2.9531 3.2891 1.2227 3.2891-1.2305z"/>
  <path d="m51.746 47.418 1.25 2.707h3.2969c-0.12109-1.8711-0.875-3.582-2.0625-4.9414z"/>
  <path d="m46.727 45.555v-3.4414c-2.1367 0.13281-4.0703 0.98047-5.5469 2.293l2.5352 2.2773z"/>
  <path d="m47.914 55.758v3.4414c2.1367-0.13281 4.0703-0.98047 5.5469-2.293l-2.5352-2.2734z"/>
  <path d="m53.449 44.395c-1.4766-1.3125-3.4102-2.1523-5.5508-2.2852v3.4414l3.0156 1.1172z"/>
  <path d="m42.887 47.426-2.4844-2.2344c-1.1875 1.3594-1.9375 3.0703-2.0586 4.9414h3.2969z"/>
  <path d="m51.754 53.891 2.4883 2.2305c1.1875-1.3555 1.9375-3.0664 2.0547-4.9414h-3.2969z"/>
  <path d="m41.188 56.918c1.4766 1.3125 3.4102 2.1562 5.5508 2.2852v-3.4453l-3.0156-1.1172z"/>
  <path d="m41.641 51.191h-3.2969c0.12109 1.8711 0.875 3.582 2.0625 4.9414l2.4883-2.2344z"/>
 </g>
</svg>
