<?xml version="1.0" encoding="UTF-8"?>
<svg width="100pt" height="100pt" version="1.1" viewBox="0 0 100 100" xmlns="http://www.w3.org/2000/svg">
 <g>
  <path d="m51.562 71.875c0 2.082-3.125 2.082-3.125 0s3.125-2.082 3.125 0"/>
  <path d="m53.125 23.438c-0.67188 0-1.2695-0.42969-1.4844-1.0703l-1.2031-3.6172h-0.87109l-1.207 3.6172c-0.21484 0.64062-0.8125 1.0703-1.4844 1.0703h-3.2266l-3.0234 45.363v13.363l3.7266 3.7266 0.98828-4.9492 0.003906 0.003906c0.14453-0.73047 0.78516-1.2578 1.5312-1.2578h6.25c0.74609 0 1.3867 0.52734 1.5312 1.2578l0.98828 4.9492 3.7305-3.7305v-13.363l-3.0234-45.363zm-4.6875 3.125h3.125v12.5h-3.125zm1.5625 50c-1.8945 0-3.6055-1.1406-4.332-2.8945-0.72266-1.75-0.32422-3.7656 1.0156-5.1094 1.3438-1.3398 3.3594-1.7383 5.1094-1.0156 1.7539 0.72656 2.8945 2.4375 2.8945 4.332-0.003906 2.5859-2.1016 4.6836-4.6875 4.6875zm4.6875-20.312v6.25c0 0.41406-0.16406 0.8125-0.45703 1.1055s-0.69141 0.45703-1.1055 0.45703h-6.25c-0.86328 0-1.5625-0.69922-1.5625-1.5625v-15.625c0-2.5898 2.0977-4.6875 4.6875-4.6875s4.6875 2.0977 4.6875 4.6875z"/>
  <path d="m6.25 68.75h3.125v3.125h-3.125z"/>
  <path d="m50 45.312c-0.86328 0-1.5625 0.69922-1.5625 1.5625v7.8125h3.125v-7.8125c0-0.86328-0.69922-1.5625-1.5625-1.5625z"/>
  <path d="m48.438 57.812h3.125v3.125h-3.125z"/>
  <path d="m31.25 75h6.25v6.25h-6.25z"/>
  <path d="m6.25 75h3.125v6.25h-3.125z"/>
  <path d="m31.25 68.75h6.25v3.125h-6.25z"/>
  <path d="m32.812 84.375h3.125v6.25h-3.125z"/>
  <path d="m48.156 82.812-0.9375 4.6875h5.5625l-0.9375-4.6875z"/>
  <path d="m28.125 82.812v-12.5h-4.6875v4.6875c0 0.41406-0.16406 0.8125-0.45703 1.1055l-3.125 3.125-2.2109-2.2109 2.668-2.668v-4.0391h-7.8125v8.4922l14.25 8.5508 2.9375-0.98047v-2c-0.86328 0-1.5625-0.69922-1.5625-1.5625z"/>
  <path d="m79.688 74.352 2.668 2.668-2.2109 2.2109-3.125-3.125c-0.29297-0.29297-0.45703-0.69141-0.45703-1.1055v-4.6875h-4.6875v12.5c0 0.41406-0.16406 0.8125-0.45703 1.1055s-0.69141 0.45703-1.1055 0.45703v2l2.9375 0.98047 14.25-8.5508v-8.4922h-7.8125z"/>
  <path d="m62.5 71.875h6.25v-3.125h-6.25z"/>
  <path d="m90.625 71.875h3.125v-3.125h-3.125z"/>
  <path d="m90.625 75h3.125v6.25h-3.125z"/>
  <path d="m46.953 16.695c0.21484-0.64062 0.8125-1.0703 1.4844-1.0703h3.125c0.67188 0 1.2695 0.42969 1.4844 1.0703l1.2031 3.6172h1.6562l-1.7812-8.9102c-0.45703-2.2617-2-4.1523-4.125-5.0469-2.125 0.89453-3.668 2.7852-4.125 5.0469l-1.7812 8.9102h1.6562zm1.4844-7.3203h3.125v3.125h-3.125z"/>
  <path d="m64.062 84.375h3.125v6.25h-3.125z"/>
  <path d="m62.5 75h6.25v6.25h-6.25z"/>
  <path d="m93.75 59.375v-23.438h-3.125v23.438h-3.125v3.125h3.125v3.125h3.125v-3.125h3.125v-3.125z"/>
  <path d="m90.625 84.375h3.125v3.125h-3.125z"/>
  <path d="m64.062 93.75h3.125v3.125h-3.125z"/>
  <path d="m32.812 93.75h3.125v3.125h-3.125z"/>
  <path d="m6.25 84.375h3.125v3.125h-3.125z"/>
  <path d="m12.5 59.375h-3.125v-23.438h-3.125v23.438h-3.125v3.125h3.125v3.125h3.125v-3.125h3.125z"/>
 </g>
</svg>
